# xmcd
#
# Track frame offsets: 
#        150
#        8715
#        17358
#        29450
#        42210
#        51625
#        63238
#        74790
#        85328
#        95060
#        104175
#        115133
#        128230
#        139235
#        151165
#        163463
#        178705
#
# Disc length: 2602 seconds
#
# Revision: 6
# Processed by: cddbd v1.5.2PL0 Copyright (c) Steve Scherf et al.
# Submitted via: ExactAudioCopy v1.3
#
DISCID=f70a2811
DTITLE=Various Artist - MCA Records 30 Years Of Hits 1958-1974 Disc 1
DYEAR=1988
DGENRE=Country
TTITLE0=Bill Monroe - Scotland
TTITLE1=Webb Pierce - I Ain't Never
TTITLE2=Brenda Lee - I'm Sorry
TTITLE3=Patsy Cline - I Fall To Pieces
TTITLE4=Burl Ives - A Little Bitty Tear
TTITLE5=Ernest Tubb - Thanks A Lot
TTITLE6=Kitty Wells - Password
TTITLE7=Warner Mack - The Bridge Washed Out
TTITLE8=Loretta Lynn - Don't Come Home A Drinkin'
TTITLE9=Wilburn Brothers - Roarin' Again
TTITLE10=Bill Anderson - Wild Weekend
TTITLE11=Jack Greene - Statue Of A Fool
TTITLE12=Conway Twitty - Hello Darlin'
TTITLE13=Conway Twitty And Loretta Lynn - After The Fire Is Gone
TTITLE14=Jerry Wallace - If You Leave Me Tonight I'll Cry
TTITLE15=Jeanne Pruett - Satin Sheets
TTITLE16=Cal Smith - Country Bumpkin
EXTD=
EXTT0=
EXTT1=
EXTT2=
EXTT3=
EXTT4=
EXTT5=
EXTT6=
EXTT7=
EXTT8=
EXTT9=
EXTT10=
EXTT11=
EXTT12=
EXTT13=
EXTT14=
EXTT15=
EXTT16=
PLAYORDER=
